<svg width="239" height="60" viewBox="0 0 239 60" fill="none" xmlns="http://www.w3.org/2000/svg">
<path d="M131.174 36.5404C131.423 36.5404 131.632 36.6335 131.803 36.8196C131.99 36.9902 132.083 37.1996 132.083 37.4478C132.083 37.6959 131.99 37.9131 131.803 38.0992C131.632 38.2698 131.423 38.3551 131.174 38.3551H112.075C111.5 38.3551 111.01 38.1535 110.606 37.7502C110.202 37.347 110 36.8584 110 36.2845V31.3756C110 30.8017 110.202 30.3131 110.606 29.9098C111.01 29.5066 111.5 29.3049 112.075 29.3049H131.174C131.423 29.3049 131.632 29.398 131.803 29.5841C131.99 29.7547 132.083 29.9641 132.083 30.2123C132.083 30.4605 131.99 30.6776 131.803 30.8637C131.632 31.0343 131.423 31.1196 131.174 31.1196H112.332C112.192 31.1196 112.068 31.1739 111.959 31.2825C111.866 31.3756 111.819 31.4919 111.819 31.6315V36.0286C111.819 36.1682 111.866 36.2923 111.959 36.4008C112.068 36.4939 112.192 36.5404 112.332 36.5404H131.174Z" fill="#1A1817"/>
<path d="M148.714 23.605L142.045 30.2588V37.5176C142.045 37.7812 141.951 38.0061 141.765 38.1923C141.594 38.3629 141.384 38.4482 141.135 38.4482C140.887 38.4482 140.669 38.3629 140.482 38.1923C140.311 38.0061 140.226 37.7812 140.226 37.5176V30.2588L133.557 23.6282C133.386 23.4576 133.3 23.2482 133.3 23.0001C133.3 22.7364 133.386 22.5193 133.557 22.3487C133.743 22.1625 133.961 22.0695 134.21 22.0695C134.458 22.0695 134.676 22.1625 134.862 22.3487L141.135 28.607L147.432 22.3254C147.603 22.1548 147.812 22.0695 148.061 22.0695C148.325 22.0695 148.543 22.1548 148.714 22.3254C148.885 22.496 148.971 22.7131 148.971 22.9768C148.971 23.225 148.885 23.4344 148.714 23.605Z" fill="#1A1817"/>
<path d="M165.692 21.9299C166.252 21.9299 166.734 22.1315 167.138 22.5348C167.542 22.938 167.744 23.4266 167.744 24.0005V37.3082C167.744 37.5563 167.651 37.7735 167.465 37.9596C167.294 38.1302 167.084 38.2155 166.835 38.2155C166.586 38.2155 166.369 38.1302 166.182 37.9596C166.011 37.7735 165.925 37.5563 165.925 37.3082V24.2797C165.925 24.1401 165.871 24.016 165.762 23.9074C165.669 23.7988 165.552 23.7446 165.412 23.7446H164.13C163.275 23.7446 162.529 24.0315 161.891 24.6054L148.389 38.0759C148.203 38.262 147.985 38.3551 147.736 38.3551C147.488 38.3396 147.278 38.2465 147.107 38.0759C146.92 37.8898 146.827 37.6727 146.827 37.4245C146.827 37.1763 146.92 36.967 147.107 36.7963L160.655 23.2793C161.65 22.3797 162.808 21.9299 164.13 21.9299H165.692Z" fill="#1A1817"/>
<path d="M188.807 21.9299C189.366 21.9299 189.848 22.1315 190.252 22.5348C190.657 22.938 190.859 23.4266 190.859 24.0005V37.3082C190.859 37.5563 190.765 37.7735 190.579 37.9596C190.408 38.1302 190.198 38.2155 189.949 38.2155C189.7 38.2155 189.483 38.1302 189.296 37.9596C189.125 37.7735 189.04 37.5563 189.04 37.3082V24.2797C189.04 24.1401 188.985 24.016 188.876 23.9074C188.783 23.7988 188.667 23.7446 188.527 23.7446H187.244C186.389 23.7446 185.643 24.0315 185.005 24.6054L171.504 38.0759C171.317 38.262 171.099 38.3551 170.851 38.3551C170.602 38.3396 170.392 38.2465 170.221 38.0759C170.035 37.8898 169.941 37.6727 169.941 37.4245C169.941 37.1763 170.035 36.967 170.221 36.7963L183.77 23.2793C184.765 22.3797 185.923 21.9299 187.244 21.9299H188.807Z" fill="#1A1817"/>
<path d="M215.885 22.9768C215.885 24.6674 215.885 27.056 215.885 30.1425C215.885 33.229 215.885 35.6253 215.885 37.3314C215.885 37.6106 215.784 37.851 215.582 38.0527C215.38 38.2543 215.131 38.3551 214.836 38.3551C214.509 38.3551 214.237 38.3086 214.019 38.2155C213.817 38.1225 213.561 37.9596 213.25 37.727C213.219 37.6959 207.591 33.2445 196.367 24.3727V37.4478C196.367 37.6959 196.274 37.9131 196.087 38.0992C195.916 38.2698 195.706 38.3551 195.457 38.3551C195.209 38.3551 194.991 38.2698 194.804 38.0992C194.633 37.9131 194.548 37.6959 194.548 37.4478V23.0931C194.548 22.814 194.649 22.5735 194.851 22.3719C195.053 22.1703 195.294 22.0695 195.574 22.0695C196.103 22.0695 196.577 22.2323 196.996 22.558C196.996 22.558 202.679 27.056 214.043 36.0519V22.9768C214.043 22.7286 214.128 22.5193 214.299 22.3487C214.486 22.1625 214.704 22.0695 214.952 22.0695C215.217 22.0695 215.434 22.1625 215.605 22.3487C215.792 22.5193 215.885 22.7286 215.885 22.9768Z" fill="#1A1817"/>
<path d="M236.948 21.9299C237.508 21.9299 237.989 22.1315 238.394 22.5348C238.798 22.938 239 23.4266 239 24.0005V37.3082C239 37.5563 238.907 37.7735 238.72 37.9596C238.549 38.1302 238.339 38.2155 238.091 38.2155C237.842 38.2155 237.624 38.1302 237.438 37.9596C237.267 37.7735 237.181 37.5563 237.181 37.3082V24.2797C237.181 24.1401 237.127 24.016 237.018 23.9074C236.925 23.7988 236.808 23.7446 236.668 23.7446H235.386C234.53 23.7446 233.784 24.0315 233.147 24.6054L219.645 38.0759C219.458 38.262 219.241 38.3551 218.992 38.3551C218.743 38.3396 218.534 38.2465 218.363 38.0759C218.176 37.8898 218.083 37.6727 218.083 37.4245C218.083 37.1763 218.176 36.967 218.363 36.7963L231.911 23.2793C232.906 22.3797 234.064 21.9299 235.386 21.9299H236.948Z" fill="#1A1817"/>
<path d="M110 22.9778C110 23.226 110.086 23.4431 110.257 23.6292C110.443 23.7998 110.661 23.8852 110.909 23.8852H131.174C131.423 23.8852 131.632 23.7998 131.803 23.6292C131.99 23.4431 132.083 23.226 132.083 22.9778C132.083 22.7296 131.99 22.5203 131.803 22.3497C131.632 22.1635 131.423 22.0705 131.174 22.0705H110.909C110.661 22.0705 110.443 22.1635 110.257 22.3497C110.086 22.5203 110 22.7296 110 22.9778Z" fill="#BA2228"/>
<g clip-path="url(#clip0_676_160)">
<path d="M66.3639 1.90735e-06H33.99C27.7905 0.000395161 21.8427 2.45239 17.4441 6.8211C13.0455 11.1898 10.553 17.1207 10.5104 23.32C10.4183 36.3261 21.2621 46.9674 34.2682 46.9674H48.3829C49.0146 46.9673 49.6296 47.1695 50.1381 47.5442L65.9568 59.2043C66.56 59.6496 67.275 59.9187 68.0221 59.9817C68.7693 60.0447 69.5192 59.8991 70.1885 59.5611C70.8577 59.2231 71.42 58.7059 71.8127 58.0672C72.2055 57.4285 72.4132 56.6933 72.4128 55.9435V47.2538C72.414 46.9668 72.5079 46.688 72.6804 46.4587C72.8529 46.2295 73.0948 46.062 73.3701 45.9814C78.1839 44.5395 82.4086 41.5924 85.424 37.5726C88.4393 33.5529 90.0865 28.6722 90.1237 23.6473C90.2117 10.6413 79.3699 1.90735e-06 66.3639 1.90735e-06ZM81.0494 38.116C78.2834 40.8887 74.7856 42.8171 70.9645 43.676C70.6451 43.7377 70.3572 43.9086 70.15 44.1595C69.9429 44.4103 69.8294 44.7253 69.8292 45.0506V55.4424C69.8287 55.735 69.7472 56.0218 69.5936 56.2709C69.4399 56.52 69.2203 56.7217 68.959 56.8535C68.6977 56.9853 68.405 57.0421 68.1134 57.0176C67.8217 56.9931 67.5426 56.8883 67.3069 56.7147L54.0779 46.9572L51.0565 44.7274C50.5713 44.3695 49.9841 44.1767 49.3812 44.1771H34.4707C23.003 44.1771 13.4438 34.7939 13.5256 23.3262C13.5661 17.8627 15.7648 12.6368 19.6422 8.7877C23.5197 4.93856 28.7616 2.77834 34.2252 2.77795H66.4191C70.513 2.77812 74.5149 3.99223 77.9188 6.26674C81.3226 8.54125 83.9756 11.774 85.5423 15.5563C87.1089 19.3385 87.5188 23.5004 86.7202 27.5156C85.9216 31.5308 83.9502 35.219 81.0555 38.1139L81.0494 38.116Z" fill="#BA2228"/>
<path d="M6.4396 23.4735C6.4318 28.168 7.84369 32.7552 10.4899 36.6329C7.50804 35.9435 4.84769 34.2642 2.94268 31.8688C1.03768 29.4734 0.000407867 26.5033 2.15067e-09 23.4428V23.3507C-5.45315e-05 20.2898 1.037 17.3192 2.94205 14.9234C4.84709 12.5277 7.5077 10.848 10.4899 10.1585C7.84364 14.037 6.43177 18.6248 6.4396 23.32V23.4735Z" fill="#BA2228"/>
<path d="M94.1291 23.4735C94.1369 28.168 92.725 32.7552 90.0787 36.6329C93.0606 35.9435 95.721 34.2642 97.626 31.8688C99.531 29.4734 100.568 26.5033 100.569 23.4428V23.3507C100.569 20.2898 99.5316 17.3192 97.6266 14.9234C95.7215 12.5277 93.061 10.848 90.0787 10.1585C92.725 14.037 94.1369 18.6248 94.1291 23.32V23.4735Z" fill="#BA2228"/>
<path d="M37.04 56.5715C36.8386 56.5634 36.6409 56.5156 36.458 56.431C36.2751 56.3464 36.1106 56.2266 35.974 56.0784C35.8375 55.9303 35.7314 55.7566 35.662 55.5675C35.5925 55.3783 35.561 55.1773 35.5692 54.976C35.5774 54.7746 35.6251 54.5768 35.7097 54.3939C35.7943 54.2111 35.9141 54.0466 36.0623 53.91C36.2105 53.7735 36.3841 53.6674 36.5732 53.5979C36.7624 53.5285 36.9634 53.4969 37.1648 53.5052C37.5712 53.5222 37.9543 53.6997 38.2301 53.9988C38.5058 54.298 38.6516 54.6942 38.6356 55.1007C38.6192 55.4964 38.4507 55.8704 38.1653 56.1449C37.8798 56.4193 37.4994 56.5729 37.1034 56.5736H37.04V56.5715ZM32.8772 56.2852C32.472 56.2453 32.0992 56.0463 31.8407 55.7318C31.5821 55.4172 31.4591 55.013 31.4984 54.6077C31.5388 54.2029 31.738 53.8307 32.0525 53.5726C32.3669 53.3145 32.7709 53.1917 33.1758 53.2311C33.3765 53.2505 33.5713 53.3094 33.7492 53.4043C33.927 53.4992 34.0844 53.6282 34.2123 53.784C34.3402 53.9399 34.4361 54.1194 34.4944 54.3123C34.5528 54.5053 34.5726 54.7079 34.5525 54.9085C34.5155 55.2872 34.339 55.6386 34.0574 55.8946C33.7758 56.1505 33.4091 56.2926 33.0285 56.2933C32.9774 56.2954 32.9283 56.2852 32.8772 56.2852ZM28.7225 55.7369C28.5237 55.7037 28.3333 55.6316 28.1624 55.5248C27.9914 55.418 27.8432 55.2785 27.7262 55.1144C27.6092 54.9502 27.5256 54.7646 27.4804 54.5682C27.4351 54.3717 27.429 54.1683 27.4624 53.9695C27.4956 53.7707 27.5677 53.5804 27.6745 53.4094C27.7814 53.2385 27.9208 53.0902 28.085 52.9732C28.2491 52.8562 28.4347 52.7726 28.6311 52.7274C28.8276 52.6821 29.031 52.676 29.2298 52.7094C29.631 52.777 29.9889 53.0012 30.2248 53.3326C30.4607 53.6641 30.5554 54.0756 30.4879 54.4768C30.4283 54.8343 30.244 55.1592 29.9676 55.3937C29.6912 55.6281 29.3407 55.757 28.9782 55.7574C28.8926 55.7583 28.8071 55.7521 28.7225 55.739V55.7369ZM24.5965 54.8696C24.2053 54.7674 23.8701 54.5151 23.6637 54.1674C23.4573 53.8197 23.3963 53.4046 23.4939 53.0122C23.5955 52.6184 23.8493 52.281 24.1995 52.0743C24.5497 51.8675 24.9677 51.8083 25.3616 51.9096C25.5567 51.9597 25.7401 52.0477 25.9013 52.1687C26.0624 52.2896 26.1981 52.4412 26.3007 52.6146C26.4033 52.788 26.4707 52.98 26.4991 53.1795C26.5275 53.3789 26.5163 53.5821 26.4662 53.7772C26.3817 54.1069 26.1899 54.399 25.921 54.6075C25.6521 54.816 25.3214 54.9291 24.9811 54.9289C24.851 54.9259 24.7218 54.9067 24.5965 54.8716V54.8696ZM20.5441 53.6013C20.163 53.4589 19.8541 53.1709 19.6853 52.8007C19.5165 52.4305 19.5017 52.0084 19.6441 51.6273C19.7869 51.246 20.0753 50.9371 20.4458 50.7683C20.8164 50.5995 21.2387 50.5848 21.6201 50.7272C21.8089 50.7979 21.9819 50.9052 22.1292 51.0428C22.2765 51.1804 22.3952 51.3456 22.4786 51.5292C22.562 51.7127 22.6084 51.9108 22.6152 52.1123C22.622 52.3137 22.589 52.5146 22.5181 52.7033C22.4091 52.9953 22.2136 53.2471 21.9578 53.4251C21.7019 53.6031 21.3979 53.6988 21.0862 53.6995C20.9011 53.7012 20.7173 53.6686 20.5441 53.6034V53.6013ZM16.6329 51.8441C16.4553 51.7488 16.2982 51.6194 16.1706 51.4634C16.043 51.3073 15.9474 51.1277 15.8892 50.9347C15.8311 50.7416 15.8116 50.5391 15.8318 50.3385C15.852 50.1379 15.9115 49.9433 16.007 49.7658C16.1021 49.5882 16.2312 49.4312 16.3871 49.3036C16.543 49.176 16.7225 49.0804 16.9153 49.0223C17.1081 48.9641 17.3106 48.9446 17.511 48.9648C17.7114 48.9849 17.9059 49.0444 18.0833 49.1398C18.4418 49.3319 18.7094 49.6586 18.8271 50.0479C18.9449 50.4373 18.9032 50.8575 18.7113 51.2161C18.5806 51.4622 18.3857 51.6683 18.1472 51.8124C17.9088 51.9565 17.6357 52.0332 17.3571 52.0344C17.1039 52.0321 16.8551 51.9675 16.6329 51.8462V51.8441ZM12.9897 49.4937C12.6679 49.2443 12.4582 48.8773 12.4068 48.4734C12.3554 48.0695 12.4665 47.6617 12.7156 47.3397C12.9649 47.0183 13.3317 46.8091 13.7352 46.7581C14.1388 46.7071 14.546 46.8184 14.8675 47.0676C15.027 47.1908 15.1607 47.3442 15.2608 47.519C15.3609 47.6939 15.4256 47.8868 15.451 48.0867C15.4765 48.2866 15.4623 48.4896 15.4092 48.684C15.3561 48.8784 15.2652 49.0604 15.1417 49.2196C14.9983 49.4053 14.8142 49.5556 14.6035 49.6588C14.3928 49.7621 14.1612 49.8154 13.9266 49.8149C13.5876 49.8151 13.2581 49.7028 12.9897 49.4958V49.4937ZM9.80055 46.4805C9.669 46.3278 9.56883 46.1507 9.50576 45.9593C9.44268 45.7679 9.41795 45.5659 9.43295 45.3649C9.44796 45.1639 9.50241 44.9679 9.59322 44.7879C9.68402 44.608 9.80938 44.4477 9.96215 44.3162C10.1148 44.1847 10.292 44.0845 10.4834 44.0215C10.6748 43.9584 10.8768 43.9336 11.0778 43.9487C11.2787 43.9637 11.4748 44.0181 11.6547 44.1089C11.8347 44.1997 11.9949 44.3251 12.1264 44.4779C12.258 44.6306 12.3581 44.8077 12.4212 44.9991C12.4843 45.1905 12.509 45.3925 12.494 45.5935C12.479 45.7945 12.4246 45.9905 12.3337 46.1704C12.2429 46.3504 12.1176 46.5106 11.9648 46.6421C11.6869 46.8823 11.3318 47.0144 10.9645 47.0144C10.7437 47.0146 10.5254 46.9672 10.3245 46.8755C10.1237 46.7837 9.94493 46.6497 9.80055 46.4826V46.4805ZM7.30489 42.825C7.11597 42.4652 7.0775 42.0452 7.19792 41.6571C7.31834 41.269 7.58782 40.9445 7.94722 40.7548C8.3072 40.5653 8.72773 40.5264 9.11633 40.6469C9.50494 40.7673 9.82979 41.0372 10.0194 41.3971C10.1136 41.5753 10.1716 41.7703 10.1903 41.971C10.209 42.1717 10.1878 42.374 10.1282 42.5665C10.0685 42.759 9.97147 42.9378 9.84259 43.0928C9.71371 43.2477 9.55552 43.3757 9.37711 43.4694C9.1573 43.5863 8.91214 43.6474 8.66319 43.6473C8.38352 43.6474 8.10916 43.571 7.86976 43.4264C7.63036 43.2818 7.43503 43.0746 7.30489 42.827V42.825ZM5.71136 38.6744C5.61221 38.2798 5.67371 37.8619 5.88234 37.5125C6.09097 37.1631 6.4297 36.9108 6.82418 36.8109C7.21885 36.7117 7.63673 36.7732 7.98611 36.9819C8.3355 37.1905 8.58783 37.5292 8.68773 37.9237C8.78683 38.3181 8.72529 38.7357 8.51662 39.0848C8.30795 39.4338 7.96924 39.6858 7.57492 39.7852C7.45198 39.8169 7.32549 39.8327 7.19853 39.8323C6.85735 39.8327 6.52577 39.7192 6.25638 39.5099C5.98698 39.3005 5.79518 39.0072 5.71136 38.6765V38.6744ZM6.6053 35.7676C6.40448 35.7509 6.20894 35.6947 6.02983 35.6023C5.85072 35.51 5.69156 35.3833 5.56144 35.2294C5.43132 35.0755 5.33277 34.8975 5.27145 34.7056C5.21013 34.5136 5.18724 34.3115 5.20405 34.1107C5.22082 33.9099 5.27697 33.7143 5.36931 33.5352C5.46166 33.3561 5.58838 33.1969 5.74225 33.0668C5.89612 32.9367 6.07412 32.8381 6.26608 32.7768C6.45804 32.7155 6.66019 32.6926 6.861 32.7094C7.26635 32.7438 7.64152 32.9375 7.90421 33.2482C8.1669 33.5588 8.29566 33.9609 8.26224 34.3664C8.22997 34.7497 8.0551 35.1069 7.77216 35.3675C7.48923 35.6281 7.11883 35.7731 6.73417 35.7738C6.6919 35.7751 6.64894 35.7737 6.6053 35.7697V35.7676Z" fill="#BA2228"/>
<path d="M44.1792 59.102C46.3461 59.102 48.1027 57.3454 48.1027 55.1785C48.1027 53.0116 46.3461 51.255 44.1792 51.255C42.0123 51.255 40.2557 53.0116 40.2557 55.1785C40.2557 57.3454 42.0123 59.102 44.1792 59.102Z" fill="#BA2228"/>
<path d="M67.5401 10.9931H33.0285C26.6092 10.9931 21.4053 16.197 21.4053 22.6163V22.6184C21.4053 29.0377 26.6092 34.2416 33.0285 34.2416H67.5401C73.9595 34.2416 79.1633 29.0377 79.1633 22.6184V22.6163C79.1633 16.197 73.9595 10.9931 67.5401 10.9931Z" fill="#1A1817"/>
<path d="M37.2875 15.3974C35.8286 15.3974 34.4024 15.83 33.1893 16.6405C31.9763 17.4511 31.0308 18.6031 30.4725 19.951C29.9142 21.2989 29.7681 22.782 30.0528 24.2129C30.3374 25.6438 31.0399 26.9582 32.0716 27.9898C33.1032 29.0215 34.4175 29.724 35.8484 30.0086C37.2793 30.2932 38.7625 30.1472 40.1104 29.5889C41.4583 29.0305 42.6103 28.0851 43.4209 26.872C44.2314 25.659 44.664 24.2328 44.664 22.7739C44.6643 21.8051 44.4737 20.8458 44.1031 19.9507C43.7325 19.0556 43.1891 18.2423 42.5041 17.5573C41.819 16.8723 41.0058 16.3289 40.1107 15.9583C39.2156 15.5877 38.2563 15.3971 37.2875 15.3974ZM37.2875 28.5364C36.1473 28.5364 35.0327 28.1982 34.0847 27.5647C33.1367 26.9312 32.3978 26.0308 31.9616 24.9773C31.5253 23.9239 31.4113 22.7647 31.6339 21.6465C31.8565 20.5282 32.4057 19.501 33.2121 18.6949C34.0185 17.8888 35.0458 17.34 36.1642 17.1178C37.2825 16.8956 38.4416 17.01 39.4949 17.4467C40.5482 17.8833 41.4484 18.6224 42.0816 19.5707C42.7147 20.5189 43.0525 21.6337 43.0521 22.7739C43.0521 23.5308 42.9029 24.2803 42.6132 24.9795C42.3235 25.6788 41.8989 26.3142 41.3636 26.8493C40.8282 27.3844 40.1927 27.8088 39.4934 28.0983C38.794 28.3878 38.0444 28.5366 37.2875 28.5364Z" fill="white"/>
<path d="M38.3349 23.6269C39.5245 23.6269 40.4889 22.6625 40.4889 21.4728C40.4889 20.2832 39.5245 19.3188 38.3349 19.3188C37.1452 19.3188 36.1808 20.2832 36.1808 21.4728C36.1808 22.6625 37.1452 23.6269 38.3349 23.6269Z" fill="white"/>
<path d="M63.2791 15.3974C61.8202 15.3974 60.394 15.83 59.181 16.6405C57.9679 17.4511 57.0225 18.6031 56.4642 19.951C55.9058 21.2989 55.7598 22.782 56.0444 24.2129C56.329 25.6438 57.0315 26.9582 58.0632 27.9898C59.0948 29.0215 60.4092 29.724 61.8401 30.0086C63.271 30.2932 64.7541 30.1472 66.102 29.5889C67.4499 29.0305 68.6019 28.0851 69.4125 26.872C70.223 25.659 70.6556 24.2328 70.6556 22.7739C70.6559 21.8051 70.4653 20.8458 70.0947 19.9507C69.7241 19.0556 69.1807 18.2423 68.4957 17.5573C67.8107 16.8723 66.9974 16.3289 66.1023 15.9583C65.2072 15.5877 64.2479 15.3971 63.2791 15.3974ZM63.2791 28.5364C62.1389 28.5364 61.0243 28.1982 60.0763 27.5647C59.1283 26.9312 58.3894 26.0308 57.9532 24.9773C57.5169 23.9239 57.4029 22.7647 57.6255 21.6465C57.8481 20.5282 58.3973 19.501 59.2037 18.6949C60.0101 17.8888 61.0374 17.34 62.1558 17.1178C63.2741 16.8956 64.4333 17.01 65.4866 17.4467C66.5399 17.8833 67.44 18.6224 68.0732 19.5707C68.7063 20.5189 69.0441 21.6337 69.0437 22.7739C69.0437 23.5308 68.8946 24.2803 68.6049 24.9795C68.3151 25.6788 67.8905 26.3142 67.3552 26.8493C66.8198 27.3844 66.1844 27.8088 65.485 28.0983C64.7856 28.3878 64.0361 28.5366 63.2791 28.5364Z" fill="white"/>
<path d="M64.3265 23.6269C65.5161 23.6269 66.4805 22.6625 66.4805 21.4728C66.4805 20.2832 65.5161 19.3188 64.3265 19.3188C63.1368 19.3188 62.1725 20.2832 62.1725 21.4728C62.1725 22.6625 63.1368 23.6269 64.3265 23.6269Z" fill="white"/>
</g>
<defs>
<clipPath id="clip0_676_160">
<rect width="100.569" height="60" fill="white"/>
</clipPath>
</defs>
</svg>
